<svg width="68" height="54" viewBox="0 0 68 54" fill="none" xmlns="http://www.w3.org/2000/svg">
<rect width="68" height="54" rx="8" fill="#FE4F30"/>
<path d="M43.1203 40C41.7949 40 40.6377 39.775 39.6489 39.3251C38.6811 38.8537 37.8817 38.2324 37.2505 37.4611C36.6193 36.6897 36.146 35.7899 35.8304 34.7614C35.5148 33.733 35.357 32.6403 35.357 31.4833C35.357 29.1693 35.6936 27.0803 36.3669 25.2163C37.0611 23.3309 37.9553 21.6704 39.0493 20.2349C40.1433 18.7779 41.3531 17.5352 42.6785 16.5068C44.025 15.4569 45.3504 14.6213 46.6548 14L47.57 15.2534C45.7186 17.0317 44.2459 18.6172 43.1519 20.0099C42.0579 21.3811 41.5108 22.5274 41.5108 23.4487C41.5108 24.0058 41.7423 24.4557 42.2051 24.7985C42.668 25.1413 43.236 25.452 43.9093 25.7305C44.5615 25.9876 45.2452 26.2769 45.9606 26.5983C46.6759 26.9197 47.3281 27.3482 47.9172 27.8838C48.5273 28.398 49.0217 29.0515 49.4004 29.8443C49.8001 30.637 50 31.644 50 32.8653C50 33.5937 49.8527 34.3758 49.5582 35.2114C49.2847 36.047 48.8534 36.8183 48.2643 37.5253C47.6963 38.2324 46.9809 38.8216 46.1183 39.293C45.2558 39.7643 44.2564 40 43.1203 40ZM25.7633 40C24.4379 40 23.2807 39.775 22.2919 39.3251C21.3241 38.8537 20.5247 38.2324 19.8935 37.4611C19.2623 36.6897 18.789 35.7899 18.4734 34.7614C18.1578 33.733 18 32.6403 18 31.4833C18 29.1693 18.3366 27.0803 19.0099 25.2163C19.7041 23.3309 20.5983 21.6704 21.6923 20.2349C22.7863 18.7779 23.9961 17.5352 25.3215 16.5068C26.668 15.4569 27.9934 14.6213 29.2978 14L30.213 15.2534C28.3616 17.0317 26.8889 18.6172 25.7949 20.0099C24.7009 21.3811 24.1538 22.5274 24.1538 23.4487C24.1538 24.0058 24.3853 24.4557 24.8481 24.7985C25.311 25.1413 25.879 25.452 26.5523 25.7305C27.2045 25.9876 27.8882 26.2769 28.6035 26.5983C29.3189 26.9197 29.9711 27.3482 30.5602 27.8838C31.1703 28.398 31.6647 29.0515 32.0434 29.8443C32.4431 30.637 32.643 31.644 32.643 32.8653C32.643 33.5937 32.4957 34.3758 32.2012 35.2114C31.9277 36.047 31.4964 36.8183 30.9073 37.5253C30.3393 38.2324 29.6239 38.8216 28.7613 39.293C27.8988 39.7643 26.8994 40 25.7633 40Z" fill="white"/>
</svg>
