<svg width="534" height="424" viewBox="0 0 534 424" fill="none" xmlns="http://www.w3.org/2000/svg">
<rect y="55.9067" width="534" height="307.187" rx="20" fill="#FE4F30"/>
<path d="M459.636 337.523C464.112 335.181 469.376 334.881 474.343 335.71C477.01 336.155 479.79 336.963 481.609 339.005C483.428 341.046 483.765 344.61 481.691 346.351C480.345 347.278 478.721 347.697 477.102 347.532C473.218 347.532 468.926 346.796 465.799 349.169C464.02 350.516 462.845 352.764 460.689 353.427C459.63 353.677 458.52 353.57 457.526 353.123C456.532 352.677 455.709 351.914 455.18 350.951C454.173 348.972 453.95 346.678 454.557 344.538C454.813 343.05 455.404 341.644 456.285 340.427C457.167 339.21 458.313 338.216 459.636 337.523Z" fill="#EBEBEB"/>
<path d="M449.416 317.464C452.155 321.422 457.469 320.116 459.932 317.692C462.395 315.267 463.438 311.775 464.388 308.429C466.555 300.792 468.742 292.783 467.127 285.012C466.739 282.655 465.721 280.451 464.184 278.64C463.401 277.751 462.402 277.086 461.287 276.71C460.172 276.333 458.979 276.26 457.827 276.495C455.149 277.221 453.484 279.873 452.278 282.412C448.727 289.887 446.866 298.07 446.83 306.367C446.83 310.232 447.27 314.272 449.416 317.464Z" fill="#EBEBEB"/>
<path d="M441.904 323.142C444.878 319.577 445.44 314.355 444.112 309.879C442.783 305.403 439.809 301.59 436.365 298.482C432.31 294.837 427.597 292.022 422.486 290.193C420.507 289.395 418.38 289.041 416.252 289.157C415.186 289.217 414.15 289.541 413.236 290.101C412.322 290.661 411.557 291.44 411.009 292.369C409.548 295.187 410.948 298.586 412.471 301.404C415.138 306.329 418.182 311.033 421.577 315.474C424.316 319.049 427.443 322.572 431.603 324.188C435.762 325.804 440.095 325.545 442.262 322.644" fill="#EBEBEB"/>
<path d="M449.232 377.217C449.376 376.626 449.458 376.022 449.477 375.414C449.6 374.108 449.763 372.461 449.947 370.503C450.187 368.085 450.552 365.681 451.041 363.302C451.677 360.401 452.542 357.556 453.627 354.795C454.688 352.037 456.13 349.445 457.909 347.097C459.358 345.188 461.208 343.631 463.325 342.538C464.759 341.815 466.298 341.329 467.884 341.098C468.48 341.077 469.073 340.99 469.652 340.839C469.054 340.772 468.451 340.772 467.853 340.839C466.208 340.966 464.598 341.391 463.101 342.092C460.869 343.158 458.913 344.737 457.388 346.703C455.528 349.078 454.03 351.722 452.942 354.546C451.844 357.347 450.985 360.238 450.377 363.188C449.918 365.601 449.604 368.041 449.436 370.492C449.283 372.565 449.222 374.264 449.191 375.435C449.144 376.029 449.157 376.626 449.232 377.217Z" fill="#E0E0E0"/>
<path d="M449.569 373.435C449.6 373.159 449.6 372.881 449.569 372.606V370.213C449.569 368.14 449.569 365.146 449.671 361.437C449.855 354.028 450.479 346.061 451.715 334.819C452.87 324.25 454.414 311.952 456.039 303.953C456.386 302.129 456.744 300.492 457.061 299.062C457.377 297.632 457.653 296.389 457.909 295.384L458.461 293.063C458.542 292.794 458.59 292.515 458.604 292.234C458.483 292.486 458.387 292.75 458.318 293.022C458.134 293.623 457.909 294.379 457.633 295.311C457.357 296.244 457.02 297.529 456.662 298.969C456.304 300.409 455.906 302.025 455.528 303.839C453.508 313.296 451.99 322.855 450.98 332.477C449.763 343.75 449.212 353.997 449.16 361.426C449.16 365.146 449.16 368.151 449.293 370.223C449.293 371.197 449.396 371.984 449.436 372.606C449.444 372.887 449.488 373.166 449.569 373.435Z" fill="#E0E0E0"/>
<path d="M449.61 353.655C449.673 352.824 449.673 351.989 449.61 351.158C449.518 349.563 449.293 347.242 448.854 344.403C448.315 341.083 447.592 337.797 446.687 334.56C445.62 330.574 444.253 326.677 442.599 322.903C439.786 315.942 435.744 309.559 430.673 304.067C429.795 303.124 428.856 302.241 427.862 301.425C427.433 301.052 427.055 300.689 426.666 300.388L425.583 299.622C424.935 299.123 424.252 298.673 423.539 298.275C423.416 298.44 426.472 300.264 430.325 304.419C435.225 309.958 439.158 316.304 441.955 323.183C443.574 326.936 444.939 330.796 446.043 334.736C446.974 337.944 447.745 341.198 448.353 344.486C448.864 347.294 449.15 349.583 449.375 351.179C449.39 352.009 449.469 352.837 449.61 353.655Z" fill="#E0E0E0"/>
<path d="M430.754 388.552L432.706 415.709H467.117L469.079 388.552H430.754Z" fill="#E0E0E0"/>
<path d="M473.177 377.849H427.433V388.552H473.177V377.849Z" fill="#E0E0E0"/>
<path d="M427.433 414.662V417.636H429.579H472.421V414.662H427.433Z" fill="#EBEBEB"/>
<path d="M431.684 422.858L429.579 417.636H470.786L468.323 422.858H431.684Z" fill="#E0E0E0"/>
<path d="M468.435 397.421C468.435 397.421 468.384 397.514 468.272 397.68L467.761 398.364C467.27 398.996 466.606 399.877 465.717 400.965L465.625 401.079L465.543 400.965L460.658 394.054H460.944L456.09 401.016L455.936 401.234L455.773 401.027L450.019 394.095H450.346C450.254 394.23 450.142 394.365 450.029 394.499L444.919 401.037L444.756 401.255L444.592 401.027C442.844 398.53 441.22 396.188 439.748 394.074H440.024L434.055 400.975L433.943 401.099L433.861 400.954L431.991 397.773L431.511 396.924C431.453 396.829 431.405 396.728 431.367 396.623C431.367 396.623 431.439 396.706 431.572 396.893L432.093 397.711C432.573 398.468 433.238 399.514 434.066 400.82H433.871L439.758 393.836L439.901 393.66L440.034 393.847L444.929 400.778H444.602L449.712 394.23L450.029 393.826L450.193 393.619L450.356 393.826L456.09 400.778H455.773L460.668 393.857L460.811 393.65L460.954 393.857L465.768 400.83H465.594L467.638 398.291L468.2 397.639C468.27 397.557 468.349 397.484 468.435 397.421Z" fill="#F5F5F5"/>
<path d="M469.549 388.376C469.549 388.49 460.934 388.593 450.295 388.593C439.656 388.593 431.04 388.49 431.04 388.376C431.04 388.262 439.666 388.158 450.295 388.158C460.924 388.158 469.549 388.251 469.549 388.376Z" fill="#F5F5F5"/>
<path d="M471.287 417.926C471.287 418.05 461.925 418.144 450.366 418.144C438.808 418.144 429.436 418.05 429.436 417.926C429.436 417.802 438.808 417.708 450.366 417.708C461.925 417.708 471.287 417.76 471.287 417.926Z" fill="#F5F5F5"/>
<path d="M486.862 24.7906H417.172V98.4381H486.862V24.7906Z" fill="#E0E0E0"/>
<path d="M482.14 24.7906H412.45V98.4381H482.14V24.7906Z" fill="#FAFAFA"/>
<path d="M482.12 98.4692H412.43V24.7699H482.12V98.4692ZM412.43 98.4174H482.12V24.8528H412.471L412.43 98.4174Z" fill="#E0E0E0"/>
<path d="M472.779 34.6959H421.822V88.5431H472.779V34.6959Z" fill="#FAFAFA"/>
<path d="M421.822 88.8954C421.46 89.4362 421.038 89.9333 420.565 90.3771C419.747 91.2474 418.603 92.4493 417.325 93.7134C416.048 94.9775 414.862 96.1276 413.993 96.9461C413.551 97.4154 413.057 97.8325 412.522 98.1895C412.878 97.6471 413.296 97.1497 413.769 96.7078C414.586 95.8375 415.731 94.6355 417.019 93.3715C418.306 92.1074 419.482 90.947 420.35 90.1388C420.793 89.6695 421.287 89.2524 421.822 88.8954Z" fill="#E0E0E0"/>
<path d="M472.779 88.7711C473.313 89.1372 473.803 89.5648 474.24 90.0455C475.099 90.864 476.284 92.0245 477.521 93.33C478.758 94.6355 479.912 95.8167 480.71 96.6974C481.172 97.1464 481.584 97.6469 481.936 98.1894C481.395 97.8366 480.903 97.4114 480.475 96.9253C479.616 96.0964 478.431 94.936 477.184 93.6305C475.937 92.325 474.792 91.1334 473.995 90.2527C473.531 89.8113 473.123 89.3137 472.779 88.7711Z" fill="#E0E0E0"/>
<path d="M472.636 34.8307C473.014 34.29 473.453 33.7961 473.944 33.3594C474.762 32.489 475.906 31.2871 477.184 30.0334C478.461 28.7797 479.647 27.6089 480.515 26.8007C480.956 26.3286 481.45 25.9112 481.987 25.5574C481.629 26.1012 481.207 26.5988 480.73 27.039C479.923 27.9094 478.778 29.1113 477.49 30.3753C476.203 31.6394 475.017 32.7999 474.148 33.608C473.697 34.078 473.188 34.4888 472.636 34.8307Z" fill="#E0E0E0"/>
<path d="M421.679 34.9653C421.142 34.6023 420.652 34.1744 420.217 33.6909C419.359 32.8724 418.173 31.7119 416.937 30.4064C415.7 29.1009 414.545 27.9093 413.748 27.0286C413.283 26.5823 412.871 26.0815 412.522 25.5366C413.051 25.9049 413.538 26.3324 413.973 26.8111C414.832 27.6296 416.017 28.8004 417.264 30.0956C418.511 31.3907 419.666 32.603 420.463 33.4837C420.927 33.9251 421.335 34.4227 421.679 34.9653Z" fill="#E0E0E0"/>
<path d="M472.636 88.5432C472.636 88.5432 472.636 88.4499 472.636 88.2841C472.636 88.1183 472.636 87.849 472.636 87.5278C472.636 86.8543 472.636 85.8803 472.636 84.6163C472.636 82.0674 472.636 78.3995 472.585 73.6437C472.585 64.215 472.523 50.7766 472.483 34.696L472.677 34.8928H421.863L422.088 34.6649C422.088 54.4237 422.088 72.9184 422.088 88.5432L421.894 88.3463L458.686 88.4499L469.018 88.5017H471.757H469.059H458.767L421.853 88.6053H421.658V88.4085C421.658 72.8667 421.658 54.3201 421.658 34.5302V34.2919H421.822H472.636H472.83V34.4991C472.83 50.6315 472.758 64.1114 472.728 73.5816C472.728 78.2752 472.728 81.9638 472.677 84.5023C472.677 85.756 472.677 86.7092 472.677 87.3723C472.677 87.6832 472.677 87.9318 472.677 88.108C472.678 88.2541 472.664 88.3999 472.636 88.5432Z" fill="#E0E0E0"/>
<path d="M455.803 52.9938H438.797V70.2348H455.803V52.9938Z" fill="#EBEBEB"/>
<path d="M486.862 115.907H417.172V189.555H486.862V115.907Z" fill="#E0E0E0"/>
<path d="M482.14 115.907H412.45V189.555H482.14V115.907Z" fill="#FAFAFA"/>
<path d="M482.12 189.586H412.43V115.886H482.12V189.586ZM412.43 189.534H482.12V115.969H412.471L412.43 189.534Z" fill="#E0E0E0"/>
<path d="M472.779 125.812H421.822V179.66H472.779V125.812Z" fill="#FAFAFA"/>
<path d="M421.822 180.022C421.457 180.561 421.035 181.057 420.565 181.504C419.747 182.374 418.603 183.576 417.325 184.83C416.048 186.084 414.862 187.254 413.993 188.063C413.551 188.532 413.057 188.949 412.522 189.306C412.878 188.763 413.296 188.266 413.769 187.824C414.586 186.954 415.731 185.752 417.019 184.488C418.306 183.224 419.482 182.063 420.35 181.255C420.788 180.783 421.282 180.369 421.822 180.022Z" fill="#E0E0E0"/>
<path d="M472.779 179.888C473.313 180.254 473.803 180.681 474.24 181.162C475.099 181.981 476.284 183.141 477.521 184.447C478.758 185.752 479.912 186.933 480.71 187.814C481.177 188.262 481.589 188.767 481.936 189.316C481.4 188.953 480.909 188.525 480.475 188.042C479.616 187.223 478.431 186.052 477.184 184.757C475.937 183.462 474.792 182.25 473.995 181.369C473.531 180.928 473.123 180.43 472.779 179.888Z" fill="#E0E0E0"/>
<path d="M472.636 125.957C472.992 125.409 473.414 124.908 473.893 124.465C474.711 123.595 475.855 122.393 477.133 121.14C478.41 119.886 479.596 118.725 480.464 117.907C480.905 117.435 481.399 117.017 481.936 116.663C481.578 117.207 481.156 117.705 480.679 118.145C479.872 119.015 478.727 120.217 477.439 121.481C476.152 122.745 474.966 123.906 474.097 124.714C473.656 125.181 473.166 125.598 472.636 125.957Z" fill="#E0E0E0"/>
<path d="M421.679 126.082C421.142 125.719 420.652 125.291 420.217 124.807C419.359 123.989 418.173 122.828 416.937 121.523C415.7 120.217 414.545 119.036 413.748 118.155C413.285 117.706 412.874 117.206 412.522 116.663C413.056 117.021 413.544 117.446 413.973 117.928C414.832 118.746 416.017 119.917 417.264 121.212C418.511 122.507 419.666 123.719 420.463 124.6C420.927 125.042 421.335 125.539 421.679 126.082Z" fill="#E0E0E0"/>
<path d="M472.636 179.66C472.636 179.66 472.636 179.566 472.636 179.401C472.636 179.235 472.636 178.965 472.636 178.644C472.636 177.971 472.636 176.997 472.636 175.743C472.636 173.184 472.636 169.526 472.585 164.76C472.585 155.331 472.523 141.893 472.483 125.812L472.677 126.009H421.863L422.088 125.781C422.088 145.54 422.088 164.035 422.088 179.66L421.822 179.452L458.614 179.556H468.946H471.685H468.987H458.696L421.781 179.66H421.587V179.463C421.587 163.921 421.587 145.374 421.587 125.584V125.574H421.822H472.636H472.83V125.781C472.83 141.914 472.758 155.394 472.728 164.864C472.728 169.557 472.728 173.246 472.677 175.795C472.677 177.038 472.677 177.991 472.677 178.655C472.677 178.965 472.677 179.214 472.677 179.39C472.669 179.481 472.656 179.571 472.636 179.66Z" fill="#E0E0E0"/>
<path d="M455.803 144.11H438.797V161.351H455.803V144.11Z" fill="#EBEBEB"/>
<path d="M266.478 74.8042L267.081 75.8403C267.761 76.9792 268.747 77.899 269.922 78.4928L270.944 79.0108L269.922 79.6325C268.794 80.3169 267.886 81.3172 267.306 82.5129L266.785 83.5491L266.182 82.5129C265.504 81.3718 264.518 80.4514 263.34 79.8605L262.318 79.3321L263.34 78.7207C264.466 78.0336 265.374 77.0341 265.957 75.8403L266.478 74.8042Z" fill="#E0E0E0"/>
<path d="M374.187 46.2177L374.79 47.2538C375.46 48.4086 376.447 49.341 377.631 49.9373L378.653 50.4657L377.631 51.0771C376.505 51.7641 375.597 52.7637 375.014 53.9575L374.493 54.9936L373.89 53.9575C373.21 52.8185 372.225 51.8988 371.049 51.305L370.027 50.7766L371.049 50.1653C372.175 49.4782 373.083 48.4786 373.665 47.2849L374.187 46.2177Z" fill="#E0E0E0"/>
<path d="M319.305 11.6008L319.612 12.1085C319.95 12.6793 320.443 13.1396 321.032 13.4348L321.564 13.7042L321.063 14.0046C320.494 14.3487 320.036 14.8526 319.745 15.4552L319.489 15.9836L319.182 15.4759C318.847 14.9029 318.353 14.4419 317.762 14.1497L317.23 13.8803L317.741 13.5695C318.304 13.2257 318.758 12.726 319.05 12.1292L319.305 11.6008Z" fill="#E0E0E0"/>
<path d="M361.003 46.601L361.299 47.1086C361.642 47.6798 362.138 48.1399 362.73 48.4349L363.251 48.7043L362.75 49.0048C362.187 49.3522 361.733 49.8554 361.442 50.4553L361.177 50.9837L360.88 50.476C360.537 49.9049 360.041 49.4448 359.449 49.1498L358.928 48.8804L359.429 48.5799C359.992 48.2325 360.446 47.7293 360.737 47.1294L361.003 46.601Z" fill="#E0E0E0"/>
<path d="M321.472 83.9635L321.778 84.4712C322.117 85.0416 322.61 85.5017 323.199 85.7974L323.73 86.0668L323.219 86.3673C322.656 86.7148 322.202 87.218 321.911 87.8179L321.646 88.3463L321.349 87.8386C321.008 87.2673 320.516 86.8042 319.929 86.502L319.397 86.243L319.898 85.9321C320.464 85.589 320.921 85.0894 321.216 84.4919L321.472 83.9635Z" fill="#E0E0E0"/>
<path d="M369.639 114.995C370.007 112.27 366.205 110.022 363.343 109.815C361.971 109.872 360.598 109.753 359.255 109.462C356.455 108.426 355.341 104.81 352.612 103.639C350.568 102.769 348.218 103.546 346.235 104.551C344.252 105.556 342.3 106.831 340.103 106.976C338.182 107.1 336.086 106.375 334.41 107.328C333.153 108.043 332.499 109.504 331.344 110.374C330.139 111.119 328.749 111.5 327.338 111.473C325.928 111.435 324.524 111.667 323.199 112.156C322.547 112.417 321.995 112.885 321.627 113.49C321.258 114.096 321.093 114.805 321.155 115.513L369.639 114.995Z" fill="#EBEBEB"/>
<path d="M282.513 16.2219C283.024 12.4711 277.802 9.3835 273.887 9.07266C272.007 8.91725 270.065 9.20736 268.297 8.57533C264.454 7.21801 262.921 2.19282 259.181 0.586833C256.381 -0.604706 253.151 0.462501 250.433 1.84054C247.714 3.21858 245.036 4.9489 242.001 5.16649C239.364 5.34263 236.503 4.34795 234.193 5.65346C232.466 6.62742 231.566 8.63749 229.982 9.79795C228.331 10.8263 226.422 11.3514 224.484 11.3107C222.553 11.2624 220.629 11.5786 218.812 12.2432C217.064 13.0617 215.613 14.9371 215.971 16.8539L282.513 16.2219Z" fill="#F5F5F5"/>
<path d="M173.997 5.83997H55.7211V204.319H173.997V5.83997Z" fill="#E0E0E0"/>
<path d="M170.062 5.83997H51.7864V204.319H170.062V5.83997Z" fill="#EBEBEB"/>
<path d="M165.024 9.86011H56.8249V200.289H165.024V9.86011Z" fill="#FAFAFA"/>
<path d="M143.961 34.6027H77.4284V175.546H143.961V34.6027Z" fill="#EBEBEB"/>
<path d="M77.408 125.678C77.2547 112.509 88.9259 99.6504 101.793 97.8165C107.925 96.9358 114.435 98.1791 120.189 95.7442C130.409 91.4858 133.669 77.7157 143.961 73.623L144.431 175.494H77.408V125.678Z" fill="#E0E0E0"/>
<path d="M444.02 230.077L443.713 229.932L442.824 229.476L439.4 227.674L426.82 220.97H426.932L388.178 235.983L387.83 236.118L387.932 235.755L389.118 231.414C391.826 221.509 394.391 212.132 396.64 203.884V203.822L418.102 187.513L424.234 182.913L425.859 181.701L426.278 181.4C426.366 181.324 426.418 181.293 426.431 181.307L426.298 181.421L425.89 181.753L424.295 182.996L418.245 187.669L396.844 204.091L396.906 203.998C394.657 212.287 392.112 221.612 389.414 231.549C389.006 233.03 388.607 234.512 388.229 235.89L387.984 235.662L426.82 220.752H426.881L439.4 227.56L442.783 229.414L443.662 229.912L444.02 230.077Z" fill="#8E58DF"/>
<path d="M393.155 235.507L390.835 236.201L390.089 238.532L388.719 236.512H386.297L387.769 234.564L387.023 232.232L389.302 233.051L391.254 231.611L391.193 234.066L393.155 235.507Z" fill="#8E58DF"/>
<path d="M399.849 203.128L398.388 203.667L397.989 205.2L397.028 203.957L395.465 204.05L396.344 202.734L395.771 201.263L397.274 201.698L398.48 200.693L398.531 202.278L399.849 203.128Z" fill="#8E58DF"/>
<path d="M429.191 180.302L428.128 181.929L428.833 183.732L426.983 183.203L425.511 184.447L425.43 182.499L423.815 181.463L425.614 180.789L426.084 178.903L427.28 180.426L429.191 180.302Z" fill="#8E58DF"/>
<path d="M446.37 228.026L445.297 229.653L446.013 231.455L444.163 230.927L442.681 232.17L442.609 230.222L440.984 229.186L442.783 228.513L443.264 226.627L444.449 228.15L446.37 228.026Z" fill="#8E58DF"/>
<path d="M428.342 220.037L427.658 221.073L428.118 222.224L426.932 221.882L425.992 222.679L425.951 221.436L424.908 220.773L426.063 220.338L426.36 219.136L427.126 220.12L428.342 220.037Z" fill="#8E58DF"/>
<path d="M328.278 55.3541C330.024 44.5107 322.768 34.2856 312.073 32.5158C301.377 30.7459 291.291 38.1015 289.546 48.9449C287.8 59.7883 295.055 70.0134 305.751 71.7832C316.447 73.553 326.532 66.1975 328.278 55.3541Z" fill="#8E58DF"/>
<g opacity="0.3">
<path d="M306.336 58.3714C306.336 59.0128 306.148 59.6398 305.797 60.1731C305.445 60.7064 304.946 61.1221 304.361 61.3676C303.777 61.613 303.134 61.6772 302.513 61.5521C301.893 61.427 301.323 61.1181 300.875 60.6645C300.428 60.211 300.123 59.6331 300 59.004C299.876 58.375 299.94 57.7229 300.182 57.1303C300.424 56.5377 300.834 56.0312 301.36 55.6748C301.886 55.3185 302.504 55.1283 303.137 55.1283C303.985 55.1283 304.799 55.47 305.399 56.0782C305.999 56.6864 306.336 57.5112 306.336 58.3714Z" fill="white"/>
</g>
<g opacity="0.3">
<path d="M301.839 49.0048C301.839 49.3777 301.73 49.7423 301.526 50.0524C301.321 50.3625 301.031 50.6042 300.691 50.747C300.351 50.8897 299.977 50.927 299.616 50.8543C299.255 50.7815 298.924 50.6019 298.664 50.3382C298.404 50.0745 298.227 49.7384 298.155 49.3726C298.083 49.0068 298.12 48.6277 298.261 48.2831C298.401 47.9385 298.64 47.644 298.946 47.4368C299.252 47.2296 299.611 47.119 299.979 47.119C300.472 47.119 300.946 47.3177 301.294 47.6713C301.643 48.025 301.839 48.5046 301.839 49.0048Z" fill="white"/>
</g>
<path d="M289.892 57.0037C289.984 57.3456 273.101 73.7681 277.454 77.2702C281.808 80.7723 300.112 71.7891 315.718 59.0137C331.324 46.2384 345.571 30.7173 341.667 26.6142C337.762 22.5112 318.273 34.6649 318.273 34.6649L320.644 36.1673C320.644 36.1673 332.428 28.5 336.158 31.4737C339.888 34.4473 329.259 46.083 314.256 57.1902C299.253 68.2974 284.751 76.089 282.503 73.0428C280.255 69.9966 290.873 59.853 290.873 59.853L289.892 57.0037Z" fill="#8E58DF"/>
<g opacity="0.3">
<path d="M289.892 57.0037C289.984 57.3456 273.101 73.7681 277.454 77.2702C281.808 80.7723 300.112 71.7891 315.718 59.0137C331.324 46.2384 345.571 30.7173 341.667 26.6142C337.762 22.5112 318.273 34.6649 318.273 34.6649L320.644 36.1673C320.644 36.1673 332.428 28.5 336.158 31.4737C339.888 34.4473 329.259 46.083 314.256 57.1902C299.253 68.2974 284.751 76.089 282.503 73.0428C280.255 69.9966 290.873 59.853 290.873 59.853L289.892 57.0037Z" fill="black"/>
</g>
<g opacity="0.3">
<path d="M298.16 38.1462C298.313 38.3431 296.985 39.4828 295.482 41.783C293.486 44.7314 292.384 48.2077 292.313 51.7833C292.242 55.3589 293.206 58.8773 295.084 61.9045C296.504 64.2565 297.782 65.4584 297.618 65.6449C297.455 65.8314 295.942 64.8574 294.195 62.5365C293.183 61.1558 292.38 59.6297 291.813 58.0087C290.364 53.9781 290.451 49.5438 292.059 45.5752C292.687 43.9793 293.549 42.488 294.614 41.151C296.412 38.8715 298.027 38.0115 298.16 38.1462Z" fill="white"/>
</g>
<path d="M338.611 69.6962C338.664 67.4117 339.384 65.1946 340.68 63.3252C341.977 61.4558 343.79 60.018 345.893 59.1938C347.995 58.3696 350.291 58.1959 352.491 58.6948C354.69 59.1936 356.694 60.3426 358.25 61.9964C359.805 63.6501 360.842 65.7344 361.229 67.9855C361.616 70.2367 361.336 72.5536 360.424 74.6433C359.512 76.733 358.009 78.5015 356.106 79.7253C354.202 80.949 351.983 81.573 349.73 81.5183C346.709 81.445 343.841 80.1584 341.756 77.9414C339.671 75.7245 338.539 72.7587 338.611 69.6962Z" fill="#8E58DF"/>
<g opacity="0.4">
<path d="M353.716 65.5517C353.724 65.1785 353.842 64.8161 354.053 64.5105C354.265 64.2049 354.561 63.9699 354.904 63.8351C355.248 63.7004 355.623 63.6721 355.982 63.7538C356.342 63.8355 356.669 64.0234 356.923 64.2939C357.177 64.5644 357.346 64.9052 357.408 65.2731C357.471 65.641 357.425 66.0195 357.275 66.3606C357.125 66.7017 356.879 66.99 356.567 67.1891C356.256 67.3882 355.893 67.4891 355.525 67.4789C355.281 67.4735 355.041 67.4193 354.818 67.3194C354.595 67.2195 354.393 67.0759 354.225 66.8968C354.057 66.7177 353.925 66.5066 353.838 66.2758C353.751 66.045 353.709 65.7989 353.716 65.5517Z" fill="black"/>
</g>
<g opacity="0.4">
<path d="M357.436 69.9449C357.442 69.7265 357.513 69.5151 357.639 69.3376C357.764 69.16 357.939 69.0245 358.141 68.9484C358.343 68.8722 358.563 68.8588 358.772 68.9099C358.982 68.961 359.171 69.0742 359.317 69.2352C359.463 69.3962 359.558 69.5975 359.59 69.8135C359.622 70.0295 359.59 70.2503 359.498 70.4478C359.406 70.6452 359.257 70.8103 359.072 70.9219C358.887 71.0335 358.673 71.0865 358.458 71.0742C358.177 71.0556 357.914 70.9278 357.723 70.7174C357.533 70.507 357.43 70.2303 357.436 69.9449Z" fill="black"/>
</g>
<g opacity="0.4">
<path d="M355.975 73.3123C356.081 73.315 356.183 73.3598 356.257 73.4372C356.332 73.5147 356.373 73.6186 356.373 73.7267C356.372 73.7798 356.36 73.8321 356.339 73.8806C356.318 73.9291 356.287 73.9729 356.249 74.0094C356.211 74.046 356.167 74.0746 356.118 74.0937C356.069 74.1127 356.017 74.1218 355.964 74.1204C355.912 74.1205 355.859 74.1097 355.811 74.0886C355.762 74.0675 355.719 74.0367 355.682 73.9979C355.646 73.9591 355.618 73.9132 355.599 73.863C355.581 73.8128 355.573 73.7594 355.576 73.706C355.579 73.6006 355.622 73.5005 355.696 73.4269C355.771 73.3534 355.871 73.3122 355.975 73.3123Z" fill="black"/>
</g>
<path d="M189.951 76.9594C189.951 76.8765 190.043 76.804 190.155 76.804C190.267 76.804 190.37 76.8765 190.37 76.9594C190.37 77.0423 190.278 77.1252 190.155 77.1252C190.131 77.128 190.106 77.126 190.083 77.1192C190.06 77.1124 190.038 77.101 190.019 77.0856C190 77.0701 189.984 77.051 189.972 77.0294C189.96 77.0077 189.953 76.9839 189.951 76.9594Z" fill="#8E58DF"/>
<path d="M209.777 238.014L231.556 233.756L273.336 243.474L294.511 247.95L294.818 277.283L247.581 286.1L215.705 276.527L203.656 258.55L209.777 238.014Z" fill="#FFBE9D"/>
<path d="M194.304 240.936L214.857 236.025C214.857 236.025 229.39 281.614 265.252 279.614C294.481 278.008 294.511 247.95 294.511 247.95L315.881 251.774C315.881 251.774 324.844 306.781 315.023 345.366C306.847 377.486 299.591 421.501 299.591 421.501H157.625L194.304 240.936Z" fill="#8E58DF"/>
<path d="M402.557 381.879C402.557 381.879 344.007 277.884 333.47 264.539C321.932 249.929 312.723 251.618 312.723 251.618L306.53 321.67L356.312 393.277L368.177 397.618L402.557 381.879Z" fill="#8E58DF"/>
<path d="M196.757 240.356C196.757 240.356 163.481 243.05 151.544 298.378C146.148 323.38 139.28 352.682 137.359 372.368C135.928 386.656 144.625 401.514 158.677 403.337L176.317 406.653C180.977 407.53 185.792 406.562 189.769 403.948C193.747 401.335 196.584 397.274 197.697 392.603L203.656 367.591L187.784 362.183L191.453 287.675L196.757 240.356Z" fill="#8E58DF"/>
<path d="M318.6 290.442C318.678 290.691 318.729 290.948 318.753 291.208C318.845 291.768 318.947 292.514 319.091 293.436C319.162 293.923 319.234 294.472 319.326 295.052C319.418 295.633 319.448 296.285 319.51 296.98C319.653 298.358 319.816 299.933 319.888 301.684C320.134 305.779 320.162 309.884 319.969 313.982C319.731 318.999 319.239 323.999 318.498 328.965C317.731 334.249 316.771 339.243 315.8 343.76C314.829 348.278 313.858 352.329 313.03 355.728C312.202 359.126 311.477 361.851 310.986 363.737C310.741 364.638 310.547 365.364 310.393 365.902C310.332 366.156 310.253 366.405 310.158 366.648C310.179 366.389 310.224 366.133 310.291 365.882C310.414 365.322 310.587 364.597 310.792 363.685L312.672 355.593C313.459 352.184 314.4 348.133 315.33 343.615C316.26 339.098 317.22 334.114 317.987 328.84C318.753 323.566 319.275 318.479 319.489 313.91C319.704 309.341 319.724 305.144 319.489 301.663C319.489 299.922 319.305 298.347 319.193 296.959C319.142 296.275 319.091 295.633 319.05 295.032C319.009 294.431 318.917 293.913 318.866 293.415C318.764 292.493 318.692 291.747 318.631 291.188C318.604 290.94 318.594 290.691 318.6 290.442Z" fill="#263238"/>
<path d="M205.209 370.264C205.139 370.118 205.08 369.965 205.035 369.809C204.933 369.467 204.79 369.031 204.616 368.472L203.962 366.327C203.778 365.351 203.372 364.433 202.777 363.644C201.902 362.793 200.856 362.142 199.711 361.737C198.364 361.221 196.976 360.826 195.561 360.556C192.189 359.922 188.771 359.576 185.341 359.52H185.065V359.251L188.07 339.388C190.002 326.882 191.76 315.557 193.037 307.268C193.701 303.207 194.233 299.902 194.611 297.56C194.795 296.451 194.948 295.571 195.061 294.918C195.061 294.648 195.153 294.42 195.194 294.234C195.201 294.155 195.222 294.078 195.255 294.006C195.271 294.085 195.271 294.166 195.255 294.244C195.255 294.431 195.255 294.659 195.173 294.938C195.091 295.591 194.969 296.472 194.826 297.591C194.488 299.943 194.008 303.259 193.425 307.331C192.179 315.619 190.482 326.924 188.602 339.45C187.498 346.599 186.466 353.365 185.536 359.302L185.301 359.023C188.771 359.113 192.228 359.505 195.633 360.193C197.067 360.483 198.473 360.903 199.833 361.447C201.025 361.89 202.105 362.598 202.991 363.519C203.357 363.935 203.629 364.427 203.789 364.96L204.167 366.338C204.402 367.177 204.596 367.902 204.759 368.503C204.923 369.104 205.025 369.539 205.107 369.86C205.153 369.992 205.188 370.127 205.209 370.264Z" fill="#263238"/>
<path d="M159.372 378.719C159.405 378.247 159.494 377.781 159.638 377.331C159.959 376.082 160.39 374.865 160.926 373.694C162.669 369.781 165.386 366.394 168.81 363.868C172.234 361.341 176.247 359.76 180.456 359.282C181.717 359.125 182.99 359.084 184.258 359.157C184.726 359.163 185.193 359.222 185.648 359.333C183.94 359.343 182.234 359.45 180.538 359.655C176.425 360.23 172.516 361.826 169.158 364.303C165.801 366.779 163.099 370.059 161.294 373.849C160.568 375.437 159.927 377.062 159.372 378.719Z" fill="#263238"/>
<path d="M167.068 351.179C167.328 351.112 167.597 351.088 167.865 351.107C168.599 351.093 169.333 351.127 170.063 351.21C172.476 351.456 174.841 352.057 177.084 352.992C179.326 353.933 181.425 355.193 183.318 356.733C183.892 357.193 184.434 357.691 184.943 358.225C185.301 358.608 185.495 358.826 185.464 358.857C185.433 358.888 184.565 358.131 183.093 357.033C179.234 354.166 174.744 352.296 170.011 351.583C168.202 351.314 167.068 351.272 167.068 351.179Z" fill="#263238"/>
<path d="M201.509 279.614C201.443 279.123 201.419 278.628 201.438 278.133C201.438 277.179 201.377 275.812 201.254 274.123C200.947 269.716 200.201 265.353 199.026 261.099C197.835 256.851 196.229 252.735 194.233 248.81C193.456 247.308 192.802 246.106 192.322 245.298C192.052 244.884 191.82 244.448 191.627 243.992C191.953 244.361 192.244 244.76 192.495 245.184C193.037 245.971 193.742 247.142 194.539 248.634C198.793 256.46 201.206 265.176 201.591 274.102C201.663 275.801 201.653 277.21 201.591 278.133C201.612 278.628 201.585 279.124 201.509 279.614Z" fill="#263238"/>
<g opacity="0.3">
<path d="M317.087 336.85C325.57 322.271 325.754 303.331 318.344 288.152C320.727 304.324 320.215 320.799 316.832 336.787" fill="black"/>
</g>
<g opacity="0.3">
<path d="M241.562 353.334C235.123 355.251 226.232 355.717 219.926 353.334C224.842 360.411 234.316 362.97 242.533 360.67C250.749 358.37 258.333 350.029 258.966 341.398C254.991 346.848 248.01 351.449 241.562 353.334Z" fill="black"/>
</g>
<path d="M265.252 329.794C265.222 329.992 265.17 330.187 265.098 330.374C264.976 330.747 264.833 331.317 264.546 332C263.801 333.981 262.874 335.885 261.777 337.689C260.159 340.378 258.204 342.844 255.962 345.025C250.459 350.454 243.357 353.911 235.736 354.868C232.656 355.273 229.537 355.273 226.456 354.868C224.376 354.605 222.323 354.151 220.324 353.51C219.609 353.293 219.088 353.054 218.72 352.92C218.533 352.856 218.352 352.776 218.178 352.681C218.921 352.851 219.654 353.058 220.376 353.303C229.029 355.742 238.257 354.967 246.396 351.117C254.453 347.101 260.819 340.284 264.332 331.907C264.925 330.56 265.201 329.773 265.252 329.794Z" fill="#263238"/>
<path d="M193.466 402.332C193.466 402.332 193.395 402.446 193.211 402.612C192.953 402.872 192.677 403.111 192.383 403.327C191.314 404.135 190.128 404.772 188.867 405.213C186.993 405.845 185.037 406.194 183.062 406.249C180.675 406.326 178.285 406.239 175.908 405.99C170.798 405.544 166.261 404.788 162.98 404.197C161.335 403.897 160.006 403.638 159.096 403.441C158.612 403.375 158.136 403.256 157.676 403.089C158.163 403.096 158.648 403.145 159.127 403.234L163.041 403.814C166.332 404.322 170.89 405.006 175.959 405.451C178.336 405.7 180.725 405.8 183.113 405.752C185.048 405.71 186.967 405.397 188.816 404.819C190.48 404.231 192.048 403.393 193.466 402.332Z" fill="#263238"/>
<path d="M308.891 129.719L313.091 125.574C318.682 128.04 321.267 134.619 322.218 140.733C323.168 146.846 323.025 153.27 325.59 158.885C327.553 163.206 331.119 167.174 330.7 171.951C330.302 176.458 326.275 180.105 326.255 184.633C326.255 188.995 329.832 192.342 331.917 196.155C336.138 203.874 338.876 235.455 336.669 244.003C318.099 242.376 285.211 240.366 266.631 236.035C271.527 203.584 292.14 157.787 308.891 129.719Z" fill="#263238"/>
<path d="M317.2 158.647C318.488 136.588 302.687 116.405 280.663 113.742C257.29 110.923 236.615 127.895 234.673 150.98L229.195 244.169C229.095 245.97 229.592 247.753 230.606 249.235C236.002 257.234 245.772 263.492 254.51 264.725C262.962 265.917 271.537 263.689 278.732 259.628C279.925 258.944 280.921 257.954 281.618 256.757C282.316 255.561 282.692 254.2 282.707 252.81L283.085 231.953C283.084 231.935 283.086 231.916 283.092 231.899C283.099 231.882 283.108 231.867 283.121 231.854C283.134 231.841 283.149 231.831 283.166 231.825C283.183 231.819 283.201 231.816 283.218 231.818C285.144 231.965 287.079 231.91 288.993 231.652C294.43 230.305 308.298 224.897 312.959 204.257C314.512 197.419 316.065 177.992 317.2 158.647Z" fill="#FFBE9D"/>
<path d="M286.969 189.119C286.969 188.912 289.248 188.684 292.938 188.477C293.868 188.477 294.757 188.322 294.982 187.7C295.119 186.75 294.962 185.779 294.532 184.923L292.243 177.67C289.074 167.392 286.846 158.968 287.255 158.854C287.664 158.74 290.577 166.957 293.745 177.235C294.501 179.774 295.227 182.188 295.922 184.488C296.208 185.524 296.729 186.788 296.167 188.146C296.011 188.462 295.785 188.738 295.506 188.951C295.228 189.165 294.905 189.311 294.563 189.379C294.041 189.484 293.509 189.522 292.978 189.492C289.258 189.472 286.979 189.327 286.969 189.119Z" fill="#263238"/>
<path d="M311.191 166.449C310.792 166.895 308.38 164.843 304.926 164.74C301.471 164.636 298.896 166.47 298.528 165.993C298.344 165.776 298.763 164.957 299.887 164.107C301.372 163.025 303.169 162.472 304.997 162.533C306.823 162.596 308.575 163.279 309.974 164.47C311.047 165.403 311.446 166.252 311.191 166.449Z" fill="#263238"/>
<path d="M276.095 167.34C275.625 167.786 273.111 165.475 269.34 165.144C265.568 164.812 262.635 166.563 262.257 166.045C262.073 165.807 262.584 165.009 263.862 164.159C265.573 163.131 267.563 162.681 269.544 162.875C271.526 163.053 273.398 163.878 274.879 165.227C275.993 166.232 276.32 167.143 276.095 167.34Z" fill="#263238"/>
<path d="M283.086 231.808C283.086 231.808 269.002 231.963 252.16 220.234C252.16 220.234 256.514 239.071 282.973 238.48L283.086 231.808Z" fill="#EB996E"/>
<path d="M284.874 197.719C284.232 196.802 283.374 196.062 282.378 195.568C281.382 195.074 280.279 194.841 279.171 194.891C278.371 194.903 277.581 195.077 276.849 195.405C276.117 195.733 275.458 196.206 274.909 196.797C274.386 197.363 274.051 198.081 273.95 198.851C273.849 199.62 273.988 200.402 274.347 201.087C275.237 202.527 277.26 202.993 279.028 202.62C280.779 202.134 282.418 201.304 283.852 200.175C284.278 199.899 284.651 199.548 284.956 199.139C285.099 198.948 285.184 198.718 285.199 198.478C285.213 198.238 285.157 197.999 285.038 197.792" fill="#EB996E"/>
<path d="M276.136 190.85C276.729 190.85 276.494 194.787 279.682 197.813C282.871 200.838 287.092 200.693 287.092 201.242C287.092 201.501 286.07 201.947 284.332 201.864C282.029 201.734 279.841 200.801 278.139 199.222C276.518 197.719 275.542 195.632 275.421 193.409C275.369 191.762 275.87 190.85 276.136 190.85Z" fill="#263238"/>
<path d="M276.698 152.897C276.269 153.85 272.682 153.114 268.399 153.29C264.117 153.467 260.591 154.327 260.08 153.446C259.866 153 260.52 152.13 261.981 151.28C263.925 150.254 266.071 149.684 268.261 149.612C270.451 149.54 272.629 149.969 274.634 150.866C276.115 151.612 276.841 152.441 276.698 152.897Z" fill="#263238"/>
<path d="M311.937 153.674C311.201 154.503 308.288 153.674 304.783 153.674C301.277 153.674 298.334 154.264 297.629 153.404C297.322 152.99 297.782 152.161 299.07 151.332C300.852 150.385 302.843 149.911 304.855 149.954C306.867 149.998 308.836 150.557 310.577 151.581C311.845 152.42 312.264 153.27 311.937 153.674Z" fill="#263238"/>
<path d="M283.852 109.079C281.951 105.805 278.425 104.313 274.48 103.712C258.374 101.236 240.407 111.068 231.383 124.807C222.358 138.546 221.878 159.051 228.48 174.137L238.526 167.775C258.69 159.341 272.927 139.645 285.896 119.295C287.705 116.529 285.538 111.928 283.852 109.079Z" fill="#263238"/>
<path d="M308.666 118.062C301.931 110.291 297.036 102.52 283.055 107.95C281.011 111.918 285.099 117.068 288.615 120.072C293.725 124.486 298.109 127.46 301.441 130.62C308.165 136.992 315.81 158.43 316.474 170.127C316.474 170.863 317.752 160.087 318.518 159.973C319.458 159.828 323.25 155.124 322.729 148.7C320.93 126.745 315.401 125.823 308.666 118.062Z" fill="#263238"/>
<path d="M274.521 103.712C275.571 103.504 276.658 103.598 277.659 103.981C280.133 104.751 282.338 106.221 284.016 108.219C284.494 108.781 284.919 109.388 285.283 110.032C285.6 110.655 285.847 111.312 286.019 111.991C286.383 113.085 286.66 114.208 286.846 115.348C287.122 117.347 286.652 118.56 286.55 118.529C286.448 118.497 286.601 117.306 286.172 115.472C285.888 114.387 285.547 113.318 285.15 112.27C284.968 111.658 284.729 111.064 284.435 110.499C284.089 109.905 283.692 109.343 283.249 108.82C281.667 106.962 279.665 105.518 277.413 104.613C275.676 103.981 274.501 103.878 274.521 103.712Z" fill="#455A64"/>
<path d="M308.002 173.236C308.003 174.03 307.704 174.796 307.166 175.374C306.628 175.952 305.892 176.299 305.11 176.344C304.721 176.381 304.329 176.339 303.957 176.22C303.584 176.101 303.239 175.909 302.941 175.653C302.643 175.397 302.398 175.084 302.222 174.731C302.045 174.378 301.939 173.993 301.911 173.598C301.891 172.791 302.182 172.008 302.721 171.414C303.261 170.82 304.008 170.463 304.803 170.417C305.198 170.379 305.596 170.423 305.973 170.545C306.351 170.668 306.7 170.867 306.999 171.13C307.298 171.394 307.541 171.717 307.714 172.079C307.886 172.441 307.984 172.834 308.002 173.236Z" fill="#263238"/>
<path d="M274.337 173.401C274.357 174.209 274.066 174.992 273.526 175.586C272.987 176.179 272.24 176.537 271.445 176.582C271.057 176.621 270.665 176.58 270.293 176.462C269.92 176.345 269.575 176.153 269.277 175.898C268.979 175.643 268.734 175.331 268.557 174.978C268.38 174.626 268.274 174.241 268.246 173.847C268.223 173.038 268.513 172.252 269.053 171.656C269.593 171.06 270.341 170.701 271.138 170.656C271.527 170.617 271.92 170.659 272.293 170.777C272.666 170.895 273.012 171.088 273.31 171.344C273.608 171.6 273.853 171.914 274.029 172.267C274.206 172.62 274.31 173.006 274.337 173.401Z" fill="#263238"/>
<path d="M181.703 199.336C183.604 196.165 185.791 193.181 189.266 191.865C192.741 190.549 196.686 189.793 199.414 187.223C203.697 183.234 203.502 176.603 203.114 170.822C202.726 165.04 202.623 158.388 206.998 154.503C210.656 151.26 216.472 150.969 219.64 147.25C221.755 144.773 222.174 141.354 222.91 138.194C224.954 129.729 229.522 114.944 254.132 106.437L232.364 190.301C233.989 190.767 237.872 194.518 238.087 197.056C238.281 199.429 237.269 201.833 237.249 204.216C237.249 207.127 240.376 208.868 242.359 211.023C244.873 213.769 245.65 217.727 245.261 221.384C244.455 226.383 243.137 231.283 241.327 236.004C221.132 233.932 191.657 233.269 176.266 220.213C173.476 217.851 177.472 206.392 181.703 199.336Z" fill="#263238"/>
<path d="M238.567 167.775C238.189 167.568 223.319 161.559 222.368 177.463C221.418 193.368 237.331 191.005 237.382 190.56C237.433 190.114 238.567 167.775 238.567 167.775Z" fill="#FFBE9D"/>
<path d="M232.967 184.26C232.895 184.198 232.68 184.436 232.2 184.612C231.535 184.859 230.802 184.833 230.156 184.54C228.541 183.815 227.305 181.069 227.397 178.209C227.449 176.847 227.798 175.512 228.419 174.303C228.597 173.817 228.888 173.382 229.266 173.034C229.645 172.686 230.101 172.435 230.596 172.303C230.914 172.239 231.245 172.289 231.531 172.446C231.817 172.604 232.039 172.857 232.159 173.163C232.343 173.619 232.221 173.93 232.302 173.961C232.384 173.992 232.66 173.712 232.568 173.049C232.509 172.649 232.314 172.282 232.016 172.013C231.607 171.655 231.074 171.476 230.534 171.516C229.884 171.603 229.267 171.859 228.743 172.258C228.218 172.657 227.804 173.187 227.54 173.795C226.793 175.132 226.379 176.632 226.334 178.168C226.242 181.369 227.673 184.457 229.901 185.255C230.312 185.407 230.753 185.461 231.188 185.414C231.624 185.368 232.043 185.221 232.415 184.985C232.916 184.633 233.018 184.291 232.967 184.26Z" fill="#EB996E"/>
<path d="M294.215 171.93C294.298 170.735 294.465 169.547 294.716 168.376C295.189 166.417 296.059 164.579 297.272 162.98C298.485 161.381 300.014 160.056 301.76 159.09C303.507 158.123 305.433 157.537 307.416 157.368C309.399 157.199 311.394 157.451 313.275 158.108C314.571 158.551 315.791 159.194 316.893 160.015C318.07 160.84 319.106 161.855 319.959 163.02C321.791 165.451 322.805 168.413 322.852 171.471C322.9 174.53 321.979 177.523 320.225 180.012C319.415 181.201 318.421 182.251 317.282 183.12C316.208 183.978 315.008 184.66 313.725 185.141C311.354 186.067 308.781 186.332 306.275 185.907C304.089 185.542 302.019 184.658 300.235 183.328C297.622 181.4 295.724 178.638 294.849 175.484C294.567 174.318 294.362 173.134 294.236 171.941C294.231 172.02 294.231 172.1 294.236 172.179C294.236 172.376 294.236 172.604 294.236 172.883C294.244 173.262 294.282 173.64 294.348 174.013C294.404 174.527 294.5 175.037 294.634 175.536C295.454 178.78 297.348 181.64 300 183.638C301.963 185.128 304.266 186.089 306.694 186.434C309.123 186.778 311.598 186.493 313.889 185.607C316.608 184.565 318.96 182.725 320.644 180.323C322.466 177.745 323.423 174.641 323.373 171.47C323.324 168.298 322.27 165.227 320.368 162.709C319.483 161.508 318.413 160.458 317.2 159.6C316.067 158.776 314.816 158.133 313.49 157.694C311.173 156.882 308.691 156.678 306.275 157.1C303.859 157.522 301.588 158.557 299.673 160.108C297.08 162.193 295.275 165.121 294.563 168.397C294.446 168.902 294.364 169.414 294.317 169.931C294.267 170.308 294.243 170.689 294.246 171.07C294.246 171.35 294.246 171.578 294.246 171.764C294.233 171.819 294.223 171.875 294.215 171.93Z" fill="#455A64"/>
<path d="M254.725 172.573C254.807 171.378 254.971 170.19 255.216 169.019C255.984 165.84 257.784 163.016 260.326 160.999C262.069 159.613 264.11 158.662 266.284 158.222C268.776 157.723 271.355 157.905 273.755 158.751C275.048 159.198 276.268 159.841 277.373 160.657C278.547 161.485 279.583 162.5 280.439 163.662C282.267 166.092 283.281 169.051 283.331 172.107C283.38 175.163 282.463 178.155 280.714 180.644C279.9 181.833 278.903 182.883 277.761 183.752C276.687 184.611 275.487 185.293 274.204 185.773C271.833 186.699 269.26 186.964 266.754 186.539C264.571 186.174 262.505 185.29 260.724 183.96C258.109 182.032 256.209 179.27 255.328 176.116C255.046 174.951 254.845 173.767 254.725 172.573C254.714 172.652 254.714 172.732 254.725 172.811C254.725 172.997 254.725 173.236 254.725 173.515C254.725 173.894 254.759 174.272 254.827 174.645C254.882 175.16 254.981 175.67 255.124 176.168C255.935 179.416 257.831 182.279 260.489 184.27C262.297 185.647 264.397 186.576 266.621 186.985C269.206 187.437 271.863 187.179 274.317 186.239C277.041 185.205 279.394 183.364 281.072 180.955C282.895 178.377 283.851 175.273 283.802 172.102C283.752 168.93 282.698 165.859 280.796 163.341C279.038 160.992 276.629 159.228 273.877 158.274C271.395 157.414 268.73 157.246 266.161 157.787C263.425 158.357 260.91 159.715 258.916 161.698C256.922 163.681 255.534 166.205 254.919 168.967C254.792 169.47 254.71 169.983 254.674 170.5C254.613 170.877 254.589 171.259 254.602 171.64V172.334C254.626 172.422 254.667 172.503 254.725 172.573Z" fill="#455A64"/>
<path d="M282.932 171.485C283.014 171.536 283.423 170.863 284.373 170.086C285.592 169.062 287.117 168.488 288.7 168.46C290.283 168.432 291.828 168.95 293.081 169.93C294.103 170.666 294.491 171.329 294.563 171.267C294.308 170.613 293.876 170.045 293.316 169.63C292.036 168.494 290.384 167.883 288.683 167.915C286.982 167.948 285.354 168.622 284.118 169.806C283.575 170.242 283.164 170.823 282.932 171.485Z" fill="#455A64"/>
<path d="M234.97 166.76C235.91 167.062 236.88 167.264 237.862 167.361C239.671 167.651 242.175 167.92 244.934 168.169L252.017 168.812C252.987 168.963 253.968 169.039 254.95 169.039C254.009 168.734 253.04 168.53 252.058 168.428C250.259 168.148 247.755 167.879 244.985 167.63L237.913 166.988C236.94 166.83 235.955 166.754 234.97 166.76Z" fill="#455A64"/>
<path d="M317.026 180.893C318.302 179.398 319.336 177.71 320.092 175.888C320.686 174.002 320.986 172.034 320.981 170.055C321.209 170.612 321.313 171.213 321.288 171.816C321.324 173.268 321.089 174.713 320.593 176.075C320.098 177.437 319.349 178.689 318.385 179.763C317.639 180.571 317.067 180.944 317.026 180.893Z" fill="white"/>
<path d="M319.499 164.522C319.581 164.398 320.164 164.698 320.521 165.403C320.879 166.107 320.726 166.75 320.583 166.739C320.44 166.729 320.317 166.2 320.041 165.631C319.765 165.061 319.407 164.636 319.499 164.522Z" fill="white"/>
<path d="M280.95 177.753C280.868 177.753 281.154 176.924 281.389 175.588C281.992 172.082 281.328 168.473 279.519 165.423C278.834 164.263 278.282 163.621 278.343 163.558C278.946 164.004 279.453 164.568 279.836 165.216C280.862 166.723 281.567 168.429 281.907 170.228C282.246 172.026 282.213 173.876 281.808 175.66C281.664 176.409 281.372 177.121 280.95 177.753Z" fill="white"/>
<path d="M226.62 190.342C226.62 190.342 226.405 190.653 226.099 191.223C225.659 192.032 225.427 192.941 225.424 193.865C225.408 194.535 225.528 195.201 225.778 195.822C226.028 196.442 226.401 197.004 226.875 197.471C227.447 198.047 228.145 198.477 228.913 198.728C229.68 198.978 230.495 199.041 231.291 198.911C232.081 198.746 232.823 198.397 233.458 197.892C234.093 197.387 234.603 196.739 234.949 195.999C235.229 195.392 235.383 194.733 235.402 194.063C235.421 193.393 235.306 192.726 235.062 192.104C234.739 191.241 234.213 190.473 233.529 189.865C233.038 189.441 232.711 189.265 232.732 189.223C233.069 189.311 233.383 189.474 233.651 189.7C234.431 190.274 235.039 191.056 235.409 191.958C235.705 192.626 235.858 193.35 235.858 194.082C235.858 194.815 235.705 195.539 235.409 196.207C235.057 197.039 234.507 197.77 233.808 198.334C233.109 198.898 232.283 199.277 231.403 199.438C230.524 199.598 229.619 199.534 228.77 199.252C227.921 198.97 227.154 198.479 226.538 197.823C226.029 197.305 225.634 196.684 225.378 196C225.123 195.316 225.013 194.585 225.056 193.855C225.092 192.879 225.392 191.932 225.925 191.119C226.283 190.549 226.62 190.321 226.62 190.342Z" fill="#E0E0E0"/>
<path d="M312.948 202.568C313.813 202.919 314.767 202.977 315.667 202.734C316.63 202.461 317.497 201.919 318.171 201.17C319.001 200.261 319.561 199.133 319.786 197.916C320.02 196.698 319.869 195.437 319.356 194.31C318.935 193.387 318.309 192.575 317.527 191.938C316.772 191.378 315.947 190.922 315.074 190.58C315.334 190.557 315.596 190.592 315.841 190.684C316.532 190.878 317.183 191.198 317.762 191.627C318.63 192.274 319.331 193.123 319.806 194.103C320.39 195.315 320.569 196.686 320.317 198.009C320.067 199.333 319.442 200.553 318.518 201.522C317.769 202.314 316.805 202.866 315.749 203.107C315.04 203.277 314.299 203.237 313.613 202.993C313.132 202.796 312.928 202.589 312.948 202.568Z" fill="#E0E0E0"/>
<path d="M256.258 408.3L271.414 412.849C271.414 412.849 279.774 416.486 283.842 417.429C288.89 418.6 292.335 417.014 292.519 414.165C292.703 411.316 288.778 410.953 288.778 410.953C285.442 409.665 282.198 408.145 279.069 406.404C276.797 404.804 274.938 402.671 273.652 400.188L279.069 400.944C279.069 400.944 290.464 409.233 294.757 411.74C299.049 414.248 299.989 409.844 300.357 408.518C300.725 407.192 287.664 393.753 287.664 393.753C287.664 393.753 300.173 401.897 302.412 403.928C304.65 405.959 308.022 406.622 308.768 405.306C309.514 403.99 311.569 403.98 308.768 398.364C305.968 392.748 283.556 377.642 283.556 377.642L289.688 376.315L296.412 379.351C296.881 381.69 297.835 383.902 299.213 385.837C301.635 389.485 305.937 385.837 305.937 385.837L303.27 371.85L289.984 363.416C289.984 363.416 276.167 365.125 274.112 366.068C272.058 367.011 269.81 370.979 269.81 370.979L266.079 372.513C260.285 374.212 260.479 380.087 258.609 380.273C256.738 380.46 202.225 369.684 202.225 369.684L197.289 368.379C189.113 374.668 185.852 385.06 184.411 394.282C184.411 394.282 182.909 398.799 184.411 401.286L256.258 408.3Z" fill="#FFBE9D"/>
<path d="M246.253 398.468C246.188 398.172 246.171 397.868 246.202 397.566C246.198 397.219 246.229 396.871 246.293 396.53C246.341 396.06 246.43 395.596 246.559 395.142C247.327 392.526 248.625 390.101 250.371 388.024C252.067 385.935 253.956 384.017 256.013 382.294C256.828 381.54 257.714 380.87 258.66 380.294C257.904 381.088 257.102 381.835 256.258 382.532C254.292 384.318 252.461 386.251 250.78 388.314C249.083 390.347 247.776 392.684 246.927 395.204C246.324 397.183 246.365 398.478 246.253 398.468Z" fill="#EB996E"/>
<path d="M269.861 370.979C269.861 370.979 269.411 371.218 268.716 371.788C267.748 372.617 266.91 373.592 266.233 374.678C265.744 375.413 265.326 376.194 264.986 377.01C264.672 377.97 264.473 378.965 264.393 379.973C264.253 381.146 263.839 382.268 263.187 383.247C262.448 384.195 261.839 385.241 261.378 386.355C260.678 388.239 260.678 390.316 261.378 392.199L261.45 392.396L261.276 392.51C258.906 394.061 257.191 396.451 256.462 399.214C256.211 400.303 256.057 401.412 256.003 402.529C255.92 402.24 255.885 401.939 255.9 401.638C255.889 400.798 255.979 399.96 256.166 399.141C256.818 396.239 258.554 393.706 261.01 392.075L260.908 392.386C260.168 390.381 260.168 388.173 260.908 386.169C261.38 385.022 262.013 383.95 262.789 382.988C263.41 382.06 263.803 380.994 263.933 379.88C264.056 377.905 264.769 376.015 265.977 374.461C266.699 373.36 267.605 372.395 268.655 371.611C268.938 371.396 269.247 371.218 269.575 371.083C269.665 371.036 269.761 371.001 269.861 370.979Z" fill="#EB996E"/>
<path d="M282.983 377.175C281.676 377.347 280.346 377.204 279.103 376.757C277.86 376.311 276.739 375.574 275.829 374.606C275.931 374.481 277.301 375.549 279.273 376.243C281.246 376.937 282.983 377.02 282.983 377.175Z" fill="#EB996E"/>
<path d="M286.479 392.479C284.505 391.917 282.586 391.175 280.745 390.262C278.833 389.517 276.987 388.609 275.226 387.547C277.195 388.123 279.113 388.865 280.96 389.764C282.872 390.509 284.718 391.417 286.479 392.479Z" fill="#EB996E"/>
<path d="M274.184 400.043C272.2 399.361 270.261 398.551 268.379 397.618C269.446 397.666 270.49 397.941 271.445 398.426C272.463 398.756 273.398 399.307 274.184 400.043Z" fill="#EB996E"/>
<path d="M284.598 393.463C283.718 393.942 282.944 394.597 282.324 395.39C281.704 396.183 281.25 397.097 280.99 398.074C280.919 398.074 280.858 397.711 280.99 397.131C281.135 396.371 281.457 395.657 281.93 395.05C282.403 394.442 283.013 393.958 283.709 393.639C284.21 393.422 284.578 393.401 284.598 393.463Z" fill="#EB996E"/>
<path d="M290.076 385.06C290.137 385.205 289.136 385.723 288.461 386.884C288.118 387.62 287.831 388.382 287.603 389.163C287.458 388.736 287.419 388.278 287.49 387.832C287.562 387.385 287.741 386.964 288.011 386.604C288.788 385.278 290.055 384.915 290.076 385.06Z" fill="#EB996E"/>
<path d="M288.533 369.84C288.482 369.84 288.277 369.601 288.124 369.104C287.94 368.426 287.94 367.71 288.124 367.032C288.302 366.362 288.655 365.754 289.146 365.27C289.514 364.908 289.821 364.783 289.851 364.835C289.364 365.559 288.969 366.342 288.676 367.166C288.524 368.049 288.476 368.946 288.533 369.84Z" fill="#EB996E"/>
<path d="M399.021 374.606C399.021 374.606 398.336 361.012 384.437 358.194C370.538 355.375 346.194 367.353 346.194 367.353L277.986 415.543L280.03 421.501L349.26 411.72L355.596 414.186L404.223 381.797L450.111 348.164L445.001 344.113C445.001 344.113 432.144 353.096 423.641 356.961C415.138 360.825 402.843 367.602 399.021 374.606Z" fill="#F5F5F5"/>
<path d="M276.933 423.469L334.656 387.112L395.679 377.175C395.679 377.175 398.745 381.672 403.927 380.574L454.107 345.346L455.057 347.47L357.743 416.786C356.314 417.316 354.769 417.439 353.276 417.143C351.783 416.847 350.398 416.144 349.27 415.108L276.933 423.469Z" fill="#455A64"/>
<path d="M395.679 377.175C395.541 377.328 395.383 377.46 395.209 377.569L393.799 378.605C392.572 379.496 390.804 380.791 388.689 382.429C384.355 385.692 378.469 390.345 372.112 395.618C365.755 400.892 360.042 405.793 355.954 409.368L351.079 413.616L349.751 414.756C349.607 414.9 349.445 415.025 349.27 415.129C349.27 415.129 349.393 414.963 349.679 414.683L350.936 413.46C352.04 412.424 353.644 410.912 355.668 409.098C359.695 405.451 365.346 400.519 371.734 395.225C378.121 389.93 383.998 385.33 388.423 382.138C390.61 380.532 392.419 379.289 393.686 378.45L395.148 377.497C395.315 377.373 395.493 377.266 395.679 377.175Z" fill="#263238"/>
<path d="M395.056 369.612C389.527 363.592 380.819 361.447 372.725 362.089C364.631 362.732 356.956 365.788 349.403 368.824L278.793 417.822L279.427 419.667L350.415 370.969C350.415 370.969 366.276 365.788 373.297 364.897C385.03 363.416 395.056 369.612 395.056 369.612Z" fill="#E0E0E0"/>
<path d="M406.134 376.056L440.085 352.837C440.085 352.837 412.266 367.508 406.134 376.056Z" fill="#E0E0E0"/>
<path d="M278.793 417.822C278.88 417.733 278.976 417.653 279.079 417.584L279.958 416.952L283.341 414.538L295.85 405.752L337.241 376.937L349.26 368.648C356.099 365.52 363.315 363.322 370.722 362.11C376.705 361.254 382.805 362.126 388.321 364.628C390.384 365.6 392.284 366.894 393.952 368.462C395.2 369.641 396.261 371.007 397.1 372.513C397.627 373.457 398.039 374.462 398.326 375.507C398.398 375.849 398.459 376.119 398.51 376.326C398.533 376.418 398.55 376.511 398.561 376.606C398.194 375.208 397.651 373.864 396.947 372.606C396.088 371.139 395.02 369.809 393.778 368.658C392.105 367.139 390.217 365.882 388.178 364.928C382.715 362.521 376.699 361.703 370.804 362.566C363.457 363.787 356.297 365.97 349.505 369.063H349.556L337.538 377.352L296.116 406.062L283.505 414.714L280.071 417.035L279.161 417.636C279.045 417.711 278.922 417.773 278.793 417.822Z" fill="#263238"/>
<path d="M340.604 380.781C340.765 380.646 340.943 380.534 341.135 380.45C341.493 380.253 342.024 379.952 342.709 379.6C344.089 378.875 346.102 377.859 348.637 376.699C355.209 373.576 362.183 371.409 369.353 370.264C376.56 369.162 383.924 369.844 390.814 372.254C392.885 373.011 394.875 373.98 396.752 375.145C397.427 375.538 397.907 375.922 398.244 376.181C398.423 376.292 398.591 376.421 398.745 376.564C398.745 376.564 397.999 376.129 396.65 375.352C394.749 374.27 392.755 373.364 390.692 372.648C383.833 370.367 376.542 369.746 369.404 370.834C362.285 371.976 355.347 374.066 348.769 377.051C346.225 378.17 344.191 379.123 342.781 379.797L341.166 380.553C340.986 380.648 340.798 380.724 340.604 380.781Z" fill="#263238"/>
<path d="M448.292 346.703C448.292 346.703 448.149 346.838 447.852 347.045L446.534 347.936L441.639 351.127C437.489 353.821 431.776 357.541 425.511 361.727C419.247 365.913 413.646 369.757 409.558 372.554L404.724 375.849L403.395 376.73C403.247 376.84 403.086 376.931 402.915 376.999C403.042 376.864 403.182 376.742 403.334 376.637L404.612 375.673C405.715 374.844 407.33 373.673 409.343 372.233C413.37 369.363 418.971 365.457 425.246 361.271C431.521 357.085 437.275 353.417 441.465 350.806C443.56 349.501 445.267 348.465 446.452 347.76L447.832 346.952C447.977 346.855 448.131 346.771 448.292 346.703Z" fill="#263238"/>
<path d="M417.407 383.962C416.714 385.654 415.832 387.259 414.78 388.749C413.472 390.324 409.2 392.52 408.863 395.515C408.526 398.509 409.221 405.534 404.601 410.88C401.624 414.206 397.855 416.703 393.656 418.133L375.433 416.33L346.327 404.715C345.676 404.549 345.117 404.129 344.769 403.548C344.421 402.966 344.312 402.269 344.467 401.607C344.647 400.887 345.035 400.239 345.582 399.744C346.128 399.249 346.807 398.931 347.533 398.83L348.228 398.716C348.228 398.716 346.552 397.328 348.953 394.893C350.997 392.821 355.361 393.992 357.61 394.748C359.858 395.504 373.042 401.089 375.403 401.949C377.498 402.705 379.113 403.379 379.113 403.379C379.113 403.379 362.239 391.836 362.004 390.324C361.728 388.51 361.912 387.682 363.64 386.418C365.684 384.915 369.036 386.521 372.286 387.91C374.708 388.946 390.15 396.675 390.15 396.675C390.15 396.675 390.845 395.991 390.15 394.603C389.455 393.214 384.325 386.521 383.517 385.278C382.71 384.034 382.495 383.33 383.303 382.283C384.427 380.802 387.391 380.097 390.12 382.625C391.847 384.242 397.989 388.428 397.989 388.428L426.339 367.457C426.339 367.457 429.865 367.363 428.639 372.347C427.412 377.331 417.407 383.962 417.407 383.962Z" fill="#FFBE9D"/>
<path d="M396.272 401.441C395.138 401.186 394.081 400.657 393.192 399.899C392.302 399.142 391.606 398.178 391.162 397.09C391.295 397.007 392.123 398.292 393.533 399.483C394.943 400.675 396.344 401.286 396.272 401.441Z" fill="#EB996E"/>
<path d="M398.602 388.935C398.602 388.873 398.98 388.759 399.624 388.842C400.427 388.96 401.183 389.3 401.809 389.825C402.434 390.349 402.905 391.038 403.171 391.816C403.365 392.417 403.334 392.852 403.262 392.852C402.834 391.884 402.223 391.011 401.464 390.282C400.605 389.649 399.633 389.192 398.602 388.935Z" fill="#EB996E"/>
<path d="M399.941 394.707C399.788 394.707 399.716 393.163 399.113 391.401C398.51 389.64 397.662 388.345 397.785 388.293C398.683 389.069 399.322 390.108 399.614 391.267C400.071 392.351 400.185 393.553 399.941 394.707Z" fill="#EB996E"/>
<path d="M416.712 382.47C416.712 382.522 416.354 382.315 415.986 381.817C415.52 381.157 415.228 380.386 415.139 379.579C415.049 378.772 415.165 377.955 415.475 377.206C415.721 376.647 415.997 376.367 416.048 376.409C415.683 377.401 415.554 378.467 415.669 379.519C415.785 380.572 416.142 381.583 416.712 382.47Z" fill="#EB996E"/>
<path d="M391.09 408.674C390.435 408.826 389.753 408.826 389.098 408.674C387.509 408.389 385.986 407.813 384.601 406.974C383.222 406.153 381.925 405.199 380.727 404.125C380.194 403.728 379.722 403.253 379.327 402.716C379.916 403.015 380.465 403.388 380.962 403.824C382.208 404.799 383.512 405.696 384.866 406.508C386.208 407.314 387.657 407.917 389.169 408.3C390.334 408.549 391.09 408.591 391.09 408.674Z" fill="#EB996E"/>
<path d="M395.833 405.71C395.976 405.71 395.986 406.746 395.127 407.606C394.269 408.466 393.226 408.425 393.247 408.28C393.267 408.135 394.054 407.928 394.749 407.244C395.444 406.56 395.679 405.689 395.833 405.71Z" fill="#EB996E"/>
<path d="M402.792 400.53C402.854 400.53 402.854 400.809 402.659 401.182C402.391 401.642 401.987 402.004 401.505 402.218C401.026 402.454 400.487 402.534 399.961 402.446C399.553 402.363 399.348 402.198 399.379 402.136C399.41 402.073 400.319 402.218 401.28 401.731C402.24 401.244 402.649 400.478 402.792 400.53Z" fill="#EB996E"/>
<path d="M378.244 412.29C378.193 412.424 371.417 409.565 363.118 405.886C354.82 402.208 348.136 399.11 348.238 398.986C348.34 398.861 355.075 401.721 363.374 405.399C371.672 409.078 378.305 412.155 378.244 412.29Z" fill="#EB996E"/>
<path d="M497.613 421.532C497.613 421.677 394.575 421.801 267.51 421.801C140.445 421.801 37.3865 421.677 37.3865 421.532C37.3865 421.387 140.404 421.262 267.51 421.262C394.616 421.262 497.613 421.376 497.613 421.532Z" fill="#263238"/>
<path d="M50.5499 311.154L72.7273 421.532H265.221C266.24 421.532 267.218 421.121 267.938 420.391C268.659 419.66 269.064 418.669 269.064 417.636C269.065 417.123 268.967 416.616 268.774 416.142C268.582 415.668 268.299 415.237 267.942 414.874C267.585 414.512 267.161 414.224 266.694 414.027C266.227 413.831 265.726 413.73 265.221 413.73H226.467L205.904 311.04C205.714 310.081 205.203 309.219 204.458 308.598C203.714 307.977 202.78 307.636 201.816 307.631L54.7196 306.035C54.0919 306.029 53.4708 306.165 52.9015 306.433C52.3323 306.701 51.8294 307.095 51.4297 307.586C51.03 308.076 50.7435 308.651 50.5913 309.269C50.439 309.886 50.4249 310.53 50.5499 311.154Z" fill="#E0E0E0"/>
<path d="M50.5499 311.154L50.4885 310.822C50.4469 310.478 50.4469 310.13 50.4885 309.786C50.5611 309.126 50.7834 308.491 51.138 307.932C51.4926 307.373 51.9699 306.905 52.5325 306.564C52.9233 306.32 53.3517 306.145 53.7998 306.046C54.2994 305.961 54.8064 305.93 55.3124 305.952H58.777L67.4435 306.025L123.071 306.553L161.846 306.957L183.573 307.175L194.958 307.299L200.784 307.362C201.285 307.362 201.745 307.362 202.276 307.362C202.795 307.421 203.3 307.572 203.768 307.807C204.712 308.274 205.459 309.068 205.873 310.045C206.065 310.529 206.202 311.033 206.282 311.547L206.579 313.029C206.773 314.065 206.977 315.018 207.182 316.013C207.577 318.009 207.979 320.019 208.388 322.043C209.198 326.084 210.019 330.177 210.851 334.321C212.513 342.61 214.216 351.082 215.961 359.737C219.425 377.041 223.043 395.038 226.753 413.616L226.497 413.409H264.608C265.11 413.389 265.614 413.421 266.11 413.502C267.133 413.724 268.033 414.336 268.624 415.211C269.223 416.084 269.468 417.156 269.309 418.206C269.216 418.842 268.978 419.447 268.615 419.974C268.251 420.501 267.771 420.935 267.214 421.242C266.652 421.545 266.03 421.715 265.395 421.739H163.103H72.7273H72.5637V421.573C65.7777 387.64 60.2997 360.048 56.4468 340.922C54.5459 331.368 53.0742 323.929 52.0726 318.873C51.5821 316.345 51.2073 314.428 50.9484 313.122C50.6929 311.817 50.5805 311.154 50.5805 311.154C50.5805 311.154 50.7338 311.817 50.9995 313.102C51.2653 314.386 51.6741 316.334 52.1851 318.842C53.2071 323.898 54.7298 331.327 56.6716 340.88C60.5348 359.996 66.1047 387.578 72.9623 421.49L72.7579 421.324L163.133 421.273H265.354C265.903 421.251 266.44 421.106 266.928 420.848C267.411 420.578 267.827 420.2 268.145 419.742C268.462 419.284 268.671 418.758 268.757 418.206C268.889 417.288 268.677 416.353 268.164 415.584C267.641 414.828 266.857 414.299 265.967 414.103C265.507 414.032 265.042 414.005 264.577 414.02H226.252V413.813C222.542 395.256 218.935 377.258 215.48 359.934C213.743 351.272 212.04 342.797 210.37 334.508L207.917 322.23C207.519 320.209 207.11 318.199 206.711 316.21C206.517 315.174 206.313 314.21 206.119 313.226L205.822 311.734C205.746 311.253 205.623 310.781 205.454 310.325C205.173 309.671 204.726 309.104 204.159 308.682C203.592 308.259 202.925 307.997 202.225 307.921C201.775 307.921 201.264 307.921 200.784 307.921L194.958 307.849L183.563 307.724L161.846 307.465L123.061 306.999L67.4333 306.305L58.777 306.191L55.3124 306.139C54.8135 306.108 54.3128 306.136 53.8203 306.222C53.3811 306.314 52.9599 306.478 52.5734 306.709C52.0221 307.035 51.5514 307.485 51.1973 308.024C50.8431 308.562 50.6147 309.176 50.5294 309.817C50.4888 310.262 50.4957 310.71 50.5499 311.154Z" fill="#263238"/>
<path d="M132.892 368.109C136.403 368.109 139.249 365.224 139.249 361.665C139.249 358.105 136.403 355.22 132.892 355.22C129.382 355.22 126.536 358.105 126.536 361.665C126.536 365.224 129.382 368.109 132.892 368.109Z" fill="white"/>
<path d="M50.7338 312.076C50.7338 312.076 50.9587 312.076 51.3981 312.076H60.821L88.3434 312.211L179.148 312.853L192.281 312.967H195.51C196.061 312.946 196.612 312.981 197.156 313.071C197.987 313.242 198.756 313.644 199.376 314.231C199.997 314.818 200.445 315.567 200.671 316.397C200.917 317.433 201.09 318.469 201.305 319.505L205.996 343.481C208.97 358.764 211.658 372.492 213.906 384.086C216.155 395.681 217.994 404.985 219.2 411.461C219.813 414.683 220.284 417.19 220.611 418.91C220.764 419.75 220.887 420.402 220.968 420.858C221.05 421.314 221.071 421.521 221.071 421.521C221.071 421.521 221.009 421.304 220.917 420.869C220.825 420.433 220.682 419.77 220.508 418.931L218.996 411.544C217.708 405.068 215.848 395.732 213.538 384.2C211.229 372.668 208.531 358.888 205.516 343.615C204.013 335.979 202.45 327.96 200.794 319.65C200.579 318.614 200.396 317.578 200.171 316.542C199.901 315.557 199.282 314.709 198.433 314.159C198.012 313.885 197.544 313.695 197.054 313.599C196.54 313.514 196.02 313.483 195.5 313.506H192.281L179.148 313.402L88.3434 312.594L60.821 312.283L53.3399 312.076H51.3879H50.7338Z" fill="#263238"/>
<path d="M117.839 262C117.839 262 97.2691 254.884 85.7754 240.233C85.7754 240.233 81.2741 240.591 79.0666 240.603" stroke="#633E9C" stroke-width="1.10975" stroke-linecap="round" stroke-linejoin="round"/>
<path d="M126.669 186.39C129.101 190.069 130.63 194.268 131.134 198.649C132.897 214.57 120.429 229.628 101.536 236.583C101.536 236.583 102.646 251.123 117.802 262" stroke="#633E9C" stroke-width="1.10975" stroke-linecap="round" stroke-linejoin="round"/>
<path d="M119.43 178.436C120.643 179.414 121.792 180.469 122.871 181.593" stroke="#633E9C" stroke-width="1.10975" stroke-linecap="round" stroke-linejoin="round"/>
<path d="M49.5676 178.436C58.3549 172.501 68.4881 168.861 79.0431 167.846C89.5981 166.832 100.239 168.475 109.996 172.628" stroke="#633E9C" stroke-width="1.10975" stroke-linecap="round" stroke-linejoin="round"/>
<path d="M66.1053 239.333C48.2604 235.633 34.8305 224.3 33.2026 209.526C32.0557 199.216 36.9023 189.251 45.5349 181.63" stroke="#633E9C" stroke-width="1.10975" stroke-linecap="round" stroke-linejoin="round"/>
<path d="M67.7578 191.767C69.1144 187.032 76.0205 186.242 79.0666 181.63V214.644C79.0666 220.81 90.77 222.499 94.8273 217.899C98.8846 213.3 91.3126 205.444 81.2617 211.4" stroke="#633E9C" stroke-width="1.10975" stroke-linecap="round" stroke-linejoin="round"/>
</svg>
