<svg width="359" height="72" viewBox="0 0 359 72" fill="none" xmlns="http://www.w3.org/2000/svg">
<path d="M125.152 25.928C128.48 25.928 131.12 26.936 133.072 28.952C135.056 30.968 136.048 33.768 136.048 37.352V53H127.888V38.456C127.888 36.728 127.424 35.4 126.496 34.472C125.6 33.512 124.352 33.032 122.752 33.032C121.152 33.032 119.888 33.512 118.96 34.472C118.064 35.4 117.616 36.728 117.616 38.456V53H109.456V38.456C109.456 36.728 108.992 35.4 108.064 34.472C107.168 33.512 105.92 33.032 104.32 33.032C102.72 33.032 101.456 33.512 100.528 34.472C99.632 35.4 99.184 36.728 99.184 38.456V53H90.976V26.216H99.184V29.576C100.016 28.456 101.104 27.576 102.448 26.936C103.792 26.264 105.312 25.928 107.008 25.928C109.024 25.928 110.816 26.36 112.384 27.224C113.984 28.088 115.232 29.32 116.128 30.92C117.056 29.448 118.32 28.248 119.92 27.32C121.52 26.392 123.264 25.928 125.152 25.928ZM167.036 39.176C167.036 39.944 166.989 40.744 166.893 41.576H148.317C148.445 43.24 148.973 44.52 149.901 45.416C150.861 46.28 152.029 46.712 153.405 46.712C155.453 46.712 156.877 45.848 157.677 44.12H166.413C165.965 45.88 165.149 47.464 163.965 48.872C162.813 50.28 161.357 51.384 159.597 52.184C157.837 52.984 155.869 53.384 153.693 53.384C151.069 53.384 148.733 52.824 146.685 51.704C144.637 50.584 143.037 48.984 141.885 46.904C140.733 44.824 140.157 42.392 140.157 39.608C140.157 36.824 140.717 34.392 141.837 32.312C142.989 30.232 144.589 28.632 146.637 27.512C148.685 26.392 151.037 25.832 153.693 25.832C156.285 25.832 158.589 26.376 160.605 27.464C162.621 28.552 164.189 30.104 165.309 32.12C166.461 34.136 167.036 36.488 167.036 39.176ZM158.637 37.016C158.637 35.608 158.157 34.488 157.197 33.656C156.237 32.824 155.037 32.408 153.597 32.408C152.221 32.408 151.053 32.808 150.093 33.608C149.165 34.408 148.589 35.544 148.365 37.016H158.637ZM205.543 25.928C208.871 25.928 211.511 26.936 213.463 28.952C215.447 30.968 216.439 33.768 216.439 37.352V53H208.279V38.456C208.279 36.728 207.815 35.4 206.887 34.472C205.991 33.512 204.743 33.032 203.143 33.032C201.543 33.032 200.279 33.512 199.351 34.472C198.455 35.4 198.007 36.728 198.007 38.456V53H189.847V38.456C189.847 36.728 189.383 35.4 188.455 34.472C187.559 33.512 186.311 33.032 184.711 33.032C183.111 33.032 181.847 33.512 180.919 34.472C180.023 35.4 179.575 36.728 179.575 38.456V53H171.367V26.216H179.575V29.576C180.407 28.456 181.495 27.576 182.839 26.936C184.183 26.264 185.703 25.928 187.399 25.928C189.415 25.928 191.207 26.36 192.775 27.224C194.375 28.088 195.623 29.32 196.519 30.92C197.447 29.448 198.711 28.248 200.311 27.32C201.911 26.392 203.655 25.928 205.543 25.928ZM234.371 53.384C231.747 53.384 229.379 52.824 227.267 51.704C225.187 50.584 223.539 48.984 222.323 46.904C221.139 44.824 220.547 42.392 220.547 39.608C220.547 36.856 221.155 34.44 222.371 32.36C223.587 30.248 225.251 28.632 227.363 27.512C229.475 26.392 231.843 25.832 234.467 25.832C237.091 25.832 239.459 26.392 241.571 27.512C243.683 28.632 245.347 30.248 246.563 32.36C247.779 34.44 248.387 36.856 248.387 39.608C248.387 42.36 247.763 44.792 246.515 46.904C245.299 48.984 243.619 50.584 241.475 51.704C239.363 52.824 236.995 53.384 234.371 53.384ZM234.371 46.28C235.939 46.28 237.267 45.704 238.355 44.552C239.475 43.4 240.035 41.752 240.035 39.608C240.035 37.464 239.491 35.816 238.403 34.664C237.347 33.512 236.035 32.936 234.467 32.936C232.867 32.936 231.539 33.512 230.483 34.664C229.427 35.784 228.899 37.432 228.899 39.608C228.899 41.752 229.411 43.4 230.435 44.552C231.491 45.704 232.803 46.28 234.371 46.28ZM257.974 29.624V45.896C257.974 47.496 258.278 48.6 258.886 49.208C259.494 49.816 260.566 50.12 262.102 50.12H265.174V53H261.574C259.206 53 257.446 52.456 256.294 51.368C255.142 50.248 254.566 48.424 254.566 45.896V29.624H250.918V26.792H254.566V20.216H257.974V26.792H265.174V29.624H257.974ZM294.427 38.552C294.427 39.704 294.395 40.584 294.331 41.192H272.587C272.683 43.176 273.163 44.872 274.027 46.28C274.891 47.688 276.027 48.76 277.435 49.496C278.843 50.2 280.379 50.552 282.043 50.552C284.219 50.552 286.043 50.024 287.515 48.968C289.019 47.912 290.011 46.488 290.491 44.696H294.043C293.403 47.256 292.027 49.352 289.915 50.984C287.835 52.584 285.211 53.384 282.043 53.384C279.579 53.384 277.371 52.84 275.419 51.752C273.467 50.632 271.931 49.064 270.811 47.048C269.723 45 269.179 42.616 269.179 39.896C269.179 37.176 269.723 34.792 270.811 32.744C271.899 30.696 273.419 29.128 275.371 28.04C277.323 26.952 279.547 26.408 282.043 26.408C284.539 26.408 286.715 26.952 288.571 28.04C290.459 29.128 291.899 30.6 292.891 32.456C293.915 34.28 294.427 36.312 294.427 38.552ZM291.019 38.456C291.051 36.504 290.651 34.84 289.819 33.464C289.019 32.088 287.915 31.048 286.507 30.344C285.099 29.64 283.563 29.288 281.899 29.288C279.403 29.288 277.275 30.088 275.515 31.688C273.755 33.288 272.779 35.544 272.587 38.456H291.019ZM299.038 39.896C299.038 37.176 299.582 34.808 300.67 32.792C301.758 30.744 303.262 29.176 305.182 28.088C307.102 26.968 309.294 26.408 311.758 26.408C314.99 26.408 317.646 27.208 319.726 28.808C321.838 30.408 323.198 32.584 323.806 35.336H320.206C319.758 33.448 318.782 31.976 317.278 30.92C315.806 29.832 313.966 29.288 311.758 29.288C309.998 29.288 308.414 29.688 307.006 30.488C305.598 31.288 304.478 32.488 303.646 34.088C302.846 35.656 302.446 37.592 302.446 39.896C302.446 42.2 302.846 44.152 303.646 45.752C304.478 47.352 305.598 48.552 307.006 49.352C308.414 50.152 309.998 50.552 311.758 50.552C313.966 50.552 315.806 50.024 317.278 48.968C318.782 47.88 319.758 46.376 320.206 44.456H323.806C323.198 47.144 321.838 49.304 319.726 50.936C317.614 52.568 314.958 53.384 311.758 53.384C309.294 53.384 307.102 52.84 305.182 51.752C303.262 50.632 301.758 49.064 300.67 47.048C299.582 45 299.038 42.616 299.038 39.896ZM328.476 39.848C328.476 37.16 329.004 34.808 330.06 32.792C331.148 30.744 332.636 29.176 334.524 28.088C336.444 26.968 338.604 26.408 341.004 26.408C343.5 26.408 345.644 26.984 347.436 28.136C349.26 29.288 350.572 30.76 351.372 32.552V26.792H354.732V53H351.372V47.192C350.54 48.984 349.212 50.472 347.388 51.656C345.596 52.808 343.452 53.384 340.956 53.384C338.588 53.384 336.444 52.824 334.524 51.704C332.636 50.584 331.148 49 330.06 46.952C329.004 44.904 328.476 42.536 328.476 39.848ZM351.372 39.896C351.372 37.784 350.94 35.928 350.076 34.328C349.212 32.728 348.028 31.496 346.524 30.632C345.052 29.768 343.42 29.336 341.628 29.336C339.772 29.336 338.108 29.752 336.636 30.584C335.164 31.416 333.996 32.632 333.132 34.232C332.3 35.8 331.884 37.672 331.884 39.848C331.884 41.992 332.3 43.88 333.132 45.512C333.996 47.112 335.164 48.344 336.636 49.208C338.108 50.04 339.772 50.456 341.628 50.456C343.42 50.456 345.052 50.024 346.524 49.16C348.028 48.296 349.212 47.064 350.076 45.464C350.94 43.864 351.372 42.008 351.372 39.896Z" fill="#333333"/>
<rect x="6" y="24" width="54" height="34" fill="white"/>
<path d="M24 54.0703H45.6666C48 54.0703 49.9722 53.2536 51.5833 51.6202C53.1944 49.9868 54 47.9874 54 45.6218C54 43.2562 53.1944 41.2567 51.5833 39.6234C49.9722 37.99 48 37.1733 45.6666 37.1733H45.5C45.0555 34.3008 43.8194 31.893 41.7916 29.9499C39.7638 28.0067 37.3333 27.0351 34.5 27.0351C32.1666 27.0351 30 27.6265 28 28.8093C26 29.9921 24.5 31.6536 23.5 33.7939H23.0833C20.4722 33.7939 18.3055 34.8077 16.5833 36.8354C14.8611 38.863 14 41.2286 14 43.9321C14 46.7482 14.9722 49.142 16.9166 51.1133C18.8611 53.0846 21.2222 54.0703 24 54.0703ZM7.33329 67.5878C5.49996 67.5878 3.93052 66.926 2.62496 65.6024C1.3194 64.2788 0.666626 62.6877 0.666626 60.829V20.2764C0.666626 18.4177 1.3194 16.8266 2.62496 15.503C3.93052 14.1794 5.49996 13.5176 7.33329 13.5176H60.6666C62.5 13.5176 64.0694 14.1794 65.375 15.503C66.6805 16.8266 67.3333 18.4177 67.3333 20.2764V60.829C67.3333 62.6877 66.6805 64.2788 65.375 65.6024C64.0694 66.926 62.5 67.5878 60.6666 67.5878H7.33329Z" fill="#FE4F30"/>
</svg>
